<?xml version="1.0" encoding="UTF-8" standalone="no"?>
<svg
   xmlns:dc="http://purl.org/dc/elements/1.1/"
   xmlns:cc="http://creativecommons.org/ns#"
   xmlns:rdf="http://www.w3.org/1999/02/22-rdf-syntax-ns#"
   xmlns:svg="http://www.w3.org/2000/svg"
   xmlns="http://www.w3.org/2000/svg"
   xmlns:sodipodi="http://sodipodi.sourceforge.net/DTD/sodipodi-0.dtd"
   xmlns:inkscape="http://www.inkscape.org/namespaces/inkscape"
   inkscape:version="1.0alpha (d7d7b92, 2019-04-16)"
   inkscape:export-ydpi="2048"
   inkscape:export-xdpi="2048"
   sodipodi:docname="application.svg"
   id="svg865"
   width="24"
   version="1.1"
   height="24">
  <metadata
     id="metadata871">
    <rdf:RDF>
      <cc:Work
         rdf:about="">
        <dc:format>image/svg+xml</dc:format>
        <dc:type
           rdf:resource="http://purl.org/dc/dcmitype/StillImage" />
        <dc:title></dc:title>
      </cc:Work>
    </rdf:RDF>
  </metadata>
  <defs
     id="defs869" />
  <sodipodi:namedview
     inkscape:current-layer="svg865"
     inkscape:window-maximized="1"
     inkscape:window-y="-8"
     inkscape:window-x="-8"
     inkscape:cy="3.7675351"
     inkscape:cx="2.0812568"
     inkscape:zoom="15.839192"
     showgrid="false"
     id="namedview867"
     inkscape:window-height="1027"
     inkscape:window-width="1920"
     inkscape:pageshadow="2"
     inkscape:pageopacity="0"
     guidetolerance="10"
     gridtolerance="10"
     objecttolerance="10"
     borderopacity="1"
     inkscape:document-rotation="0"
     bordercolor="#666666"
     pagecolor="#ffffff" />
  <g
     id="g863"
     transform="translate(0 -1028.4)">
    <path
       id="path853"
       fill="#2c3e50"
       d="m3 1030.4c-1.1046 0-2 0.9-2 2v7 2 7c0 1.1 0.8954 2 2 2h9 9c1.105 0 2-0.9 2-2v-7-2-7c0-1.1-0.895-2-2-2h-9-9z" />
    <path
       id="path855"
       fill="#34495e"
       d="m3 1049.4c-1.1046 0-2-0.9-2-2v-7-2-3h22v3 2 7c0 1.1-0.895 2-2 2h-9-9z" />
    <path
       id="path857"
       fill="#ecf0f1"
       d="m4 1032.9v1.1l2 2.4-2 2.3v1.1l3-3.4-3-3.5z" />
    <path
       id="path859"
       transform="translate(0 1028.4)"
       fill="#34495e"
       d="m3 2c-1.1046 0-2 0.8954-2 2v7 2 3h22v-3-2-7c0-1.1046-0.895-2-2-2h-9-9z" />
    <path
       id="path861"
       transform="translate(0 1028.4)"
       fill="#ecf0f1"
       d="m4 5.125v1.125l3 1.75-3 1.75v1.125l5-2.875-5-2.875zm5 4.875v1h5v-1h-5z" />
  </g>
</svg>
